<svg id="Layer_1" data-name="Layer 1" xmlns="http://www.w3.org/2000/svg" xmlns:xlink="http://www.w3.org/1999/xlink" viewBox="0 0 238.63 126">
  <defs>
    <style>
      .cls-1 {
        fill: none;
      }

      .cls-2 {
        fill: #253043;
      }

      .cls-3 {
        clip-path: url(#clip-path);
      }
    </style>
    <clipPath id="clip-path">
      <rect class="cls-1" x="-186.14" y="-495.49" width="612" height="792"/>
    </clipPath>
  </defs>
  <title>Artboard 1</title>
  <polygon class="cls-2" points="4.63 38.56 18.95 38.56 18.95 42.78 9.51 42.78 9.51 45.5 18.06 45.5 18.06 49.42 9.51 49.42 9.51 52.27 19.07 52.27 19.07 56.5 4.63 56.5 4.63 38.56"/>
  <polygon class="cls-2" points="21.18 38.56 26.7 38.56 30.75 49.91 34.79 38.56 40.21 38.56 32.99 56.63 28.41 56.63 21.18 38.56"/>
  <rect class="cls-2" x="43.06" y="38.56" width="4.96" height="17.94"/>
  <g class="cls-3">
    <path class="cls-2" d="M52.29,38.56h6.87c6.36,0,10,3.69,10,8.86v.06c0,5.17-3.74,9-10.16,9H52.29Zm6.94,13.53c3,0,4.91-1.64,4.91-4.54v0c0-2.87-2-4.54-4.91-4.54h-2v9.13Z"/>
  </g>
  <polygon class="cls-2" points="72.76 38.56 87.09 38.56 87.09 42.78 77.65 42.78 77.65 45.5 86.2 45.5 86.2 49.42 77.65 49.42 77.65 52.27 87.22 52.27 87.22 56.5 72.76 56.5 72.76 38.56"/>
  <polygon class="cls-2" points="90.75 38.56 95.35 38.56 102.68 48.04 102.68 38.56 107.56 38.56 107.56 56.5 103.24 56.5 95.63 46.66 95.63 56.5 90.75 56.5 90.75 38.56"/>
  <g class="cls-3">
    <path class="cls-2" d="M111.12,47.58v0a9.18,9.18,0,0,1,9.39-9.33,8.71,8.71,0,0,1,7.55,3.74l-3.71,2.89a4.77,4.77,0,0,0-3.9-2.1c-2.49,0-4.24,2.13-4.24,4.75v.05c0,2.69,1.75,4.79,4.24,4.79a4.83,4.83,0,0,0,4-2.18l3.72,2.67a9,9,0,0,1-7.89,4,9.07,9.07,0,0,1-9.18-9.28"/>
  </g>
  <polygon class="cls-2" points="131.31 38.56 145.64 38.56 145.64 42.78 136.2 42.78 136.2 45.5 144.75 45.5 144.75 49.42 136.2 49.42 136.2 52.27 145.76 52.27 145.76 56.5 131.31 56.5 131.31 38.56"/>
  <rect class="cls-2" x="148.74" y="46.35" width="8.34" height="4.28"/>
  <rect class="cls-2" x="63.02" y="68.02" width="4.96" height="17.94"/>
  <polygon class="cls-2" points="72.25 68.02 76.86 68.02 84.18 77.51 84.18 68.02 89.07 68.02 89.07 85.97 84.74 85.97 77.14 76.12 77.14 85.97 72.25 85.97 72.25 68.02"/>
  <polygon class="cls-2" points="93.23 68.02 107.48 68.02 107.48 72.38 98.17 72.38 98.17 75.43 106.59 75.43 106.59 79.56 98.17 79.56 98.17 85.97 93.23 85.97 93.23 68.02"/>
  <g class="cls-3">
    <path class="cls-2" d="M110.12,77V77a9.59,9.59,0,0,1,19.18,0v0a9.59,9.59,0,0,1-19.18.05m14.15,0V77a4.64,4.64,0,0,0-4.58-4.84,4.56,4.56,0,0,0-4.51,4.79v0a4.65,4.65,0,0,0,4.56,4.85,4.57,4.57,0,0,0,4.53-4.8"/>
    <path class="cls-2" d="M132.89,68h8.42c2.72,0,4.6.72,5.8,2a5.61,5.61,0,0,1,1.58,4.18v0A5.67,5.67,0,0,1,145,79.71L149.27,86h-5.7L140,80.53h-2.16V86h-4.93Zm8.19,8.61c1.68,0,2.65-.82,2.65-2.12v-.06c0-1.4-1-2.12-2.68-2.12h-3.23v4.3Z"/>
  </g>
  <polygon class="cls-2" points="152.19 68.02 157.41 68.02 161.66 74.97 165.91 68.02 171.12 68.02 171.12 85.97 166.21 85.97 166.21 75.66 161.66 82.68 161.56 82.68 157.03 75.71 157.03 85.97 152.19 85.97 152.19 68.02"/>
  <polygon class="cls-2" points="175.29 68.02 189.61 68.02 189.61 72.25 180.17 72.25 180.17 74.97 188.72 74.97 188.72 78.89 180.17 78.89 180.17 81.73 189.74 81.73 189.74 85.97 175.29 85.97 175.29 68.02"/>
  <g class="cls-3">
    <path class="cls-2" d="M193.27,68h6.87c6.36,0,10.05,3.69,10.05,8.87v0c0,5.18-3.74,9-10.15,9h-6.77Zm6.94,13.54c2.95,0,4.91-1.64,4.91-4.54v0c0-2.87-2-4.54-4.91-4.54h-2v9.13Z"/>
  </g>
  <rect class="cls-2" x="4.23" y="104.3" width="2.06" height="18.42"/>
  <polygon class="cls-2" points="26.14 104.29 26.14 119.06 14.62 104.29 12.69 104.29 12.69 122.71 14.7 122.71 14.7 107.61 26.5 122.71 28.15 122.71 28.15 104.29 26.14 104.29"/>
  <polygon class="cls-2" points="33.06 104.29 33.06 106.22 39.19 106.22 39.19 122.71 41.28 122.71 41.28 106.22 47.42 106.22 47.42 104.29 33.06 104.29"/>
  <polygon class="cls-2" points="52.33 104.29 52.33 122.71 65.67 122.71 65.67 120.82 54.39 120.82 54.39 114.37 64.37 114.37 64.37 112.48 54.39 112.48 54.39 106.19 65.55 106.19 65.55 104.29 52.33 104.29"/>
  <g class="cls-3">
    <path class="cls-2" d="M83.46,122.71l-5.3-7.15H72.93v7.15H70.87V104.29h7.86c4,0,6.61,2.19,6.61,5.51,0,3.07-2.09,4.86-5,5.39L86,122.71Zm-4.89-16.49H72.93v7.47h5.62c2.74,0,4.7-1.42,4.7-3.82s-1.72-3.65-4.68-3.65"/>
  </g>
  <polygon class="cls-2" points="104.03 104.29 97.5 120.16 91 104.29 88.7 104.29 96.56 122.85 98.39 122.85 106.25 104.29 104.03 104.29"/>
  <polygon class="cls-2" points="110.9 104.29 110.9 122.71 124.25 122.71 124.25 120.82 112.96 120.82 112.96 114.37 122.94 114.37 122.94 112.48 112.96 112.48 112.96 106.19 124.11 106.19 124.11 104.29 110.9 104.29"/>
  <polygon class="cls-2" points="142.89 104.29 142.89 119.06 131.37 104.29 129.44 104.29 129.44 122.71 131.45 122.71 131.45 107.61 143.26 122.71 144.9 122.71 144.9 104.29 142.89 104.29"/>
  <polygon class="cls-2" points="149.81 104.29 149.81 106.22 155.95 106.22 155.95 122.71 158.03 122.71 158.03 106.22 164.17 106.22 164.17 104.29 149.81 104.29"/>
  <rect class="cls-2" x="169.26" y="104.3" width="2.07" height="18.42"/>
  <g class="cls-3">
    <path class="cls-2" d="M186.21,123a9.53,9.53,0,1,1,9.35-9.55,9.23,9.23,0,0,1-9.35,9.55m0-17.13c-4.18,0-7.16,3.37-7.16,7.58a7.31,7.31,0,0,0,7.21,7.63c4.18,0,7.16-3.37,7.16-7.58a7.31,7.31,0,0,0-7.21-7.63"/>
  </g>
  <polygon class="cls-2" points="214.41 104.29 214.41 119.06 202.89 104.29 200.96 104.29 200.96 122.71 202.97 122.71 202.97 107.61 214.78 122.71 216.43 122.71 216.43 104.29 214.41 104.29"/>
  <g class="cls-3">
    <path class="cls-2" d="M229.19,112.5c4.08.9,6,2.4,6,5.24,0,3.18-2.62,5.24-6.25,5.24a10.68,10.68,0,0,1-7.47-3l1.28-1.53a8.68,8.68,0,0,0,6.27,2.61c2.46,0,4.08-1.29,4.08-3.16s-.92-2.71-4.76-3.52c-4.2-.93-6.13-2.29-6.13-5.35s2.53-5,6-5a9.5,9.5,0,0,1,6.43,2.26l-1.2,1.61a8,8,0,0,0-5.28-2c-2.38,0-3.89,1.32-3.89,3s.94,2.74,5,3.6"/>
    <path class="cls-2" d="M50.18,83.58a2.53,2.53,0,1,1,2.5-2.52,2.51,2.51,0,0,1-2.5,2.52m0-6.74a4.19,4.19,0,0,0-4.12,3.58H6.88V64.18H5.33V82.11H46.15a4.18,4.18,0,1,0,4-5.27"/>
    <path class="cls-2" d="M220.6,83.58a2.53,2.53,0,1,1,2.5-2.53,2.53,2.53,0,0,1-2.5,2.53m14.05-36.46H171.42v1.69H233V79.58H224.5a4.22,4.22,0,1,0,.26,1.69h9.89Z"/>
    <path class="cls-2" d="M17.88,11.59c0-4.62-3.52-8.15-8.62-8.15H3.62V19.79H9.26c5.1,0,8.62-3.57,8.62-8.2m-1.9.05c0,3.64-2.62,6.45-6.72,6.45H5.45V5.15H9.26A6.34,6.34,0,0,1,16,11.64m6.17,8.15H24V3.44H22.15ZM30.38,7.53c0-1.5,1.34-2.67,3.45-2.67a7.11,7.11,0,0,1,4.69,1.78l1.06-1.42a8.38,8.38,0,0,0-5.7-2c-3.08,0-5.33,1.87-5.33,4.48s1.71,3.93,5.45,4.74c3.4.73,4.21,1.59,4.21,3.13s-1.43,2.81-3.61,2.81A7.74,7.74,0,0,1,29,16.05L27.9,17.41A9.45,9.45,0,0,0,34.53,20c3.22,0,5.54-1.82,5.54-4.64,0-2.53-1.67-3.86-5.29-4.65s-4.4-1.64-4.4-3.2m14.84,0c0-1.5,1.34-2.67,3.45-2.67a7.07,7.07,0,0,1,4.68,1.78l1.07-1.42a8.39,8.39,0,0,0-5.7-2c-3.09,0-5.34,1.87-5.34,4.48s1.72,3.93,5.45,4.74c3.41.73,4.22,1.59,4.22,3.13s-1.43,2.81-3.61,2.81a7.72,7.72,0,0,1-5.57-2.32l-1.13,1.36A9.43,9.43,0,0,0,49.37,20c3.22,0,5.54-1.82,5.54-4.64,0-2.53-1.67-3.86-5.29-4.65s-4.4-1.64-4.4-3.2M70.6,3.44H58.87V19.79H70.72V18.11h-10V12.39h8.86V10.7H60.7V5.12h9.9ZM88.34,6.55V19.79h1.83V3.44H88.32l-5.91,8.92L76.49,3.44H74.64V19.79h1.78V6.57l5.92,8.74h.09Zm6.82,13.24H97V3.44H95.16Zm18.75-3.25L103.69,3.44H102V19.79h1.79V6.38l10.48,13.41h1.46V3.44h-1.79ZM128.24,3.32h-1.71l-7.4,16.47H121l1.92-4.32h8.84l1.9,4.32h2Zm2.81,10.49h-7.4l3.71-8.34Zm12.08-8.66h5.44V3.44H135.82V5.15h5.45V19.79h1.86Zm9.27,14.64h1.83V3.44H152.4Zm22.65-8.2a8.18,8.18,0,0,0-8.25-8.43,8.26,8.26,0,0,0-8.3,8.48,8.18,8.18,0,0,0,8.25,8.43,8.26,8.26,0,0,0,8.3-8.48m-1.9.05a6.41,6.41,0,0,1-6.35,6.73,6.49,6.49,0,0,1-6.4-6.78,6.41,6.41,0,0,1,6.35-6.73,6.49,6.49,0,0,1,6.4,6.78m17.95,4.9L180.87,3.44h-1.71V19.79h1.78V6.38l10.48,13.41h1.46V3.44H191.1Zm29.63-4.95a8.28,8.28,0,1,0-16.56.05,8.18,8.18,0,0,0,8.25,8.43,8.27,8.27,0,0,0,8.31-8.48m-1.91.05a6.41,6.41,0,0,1-6.35,6.73,6.49,6.49,0,0,1-6.4-6.78,6.41,6.41,0,0,1,6.35-6.73,6.49,6.49,0,0,1,6.4,6.78m17.67-8.2H224.83V19.79h1.83V12.67h8.79V11h-8.79V5.15h9.83Z"/>
  </g>
</svg>
