<svg id="Layer_1" data-name="Layer 1" xmlns="http://www.w3.org/2000/svg" xmlns:xlink="http://www.w3.org/1999/xlink" viewBox="0 0 269.99 114.57">
  <defs>
    <style>
      .cls-1 {
        fill: #d72027;
      }

      .cls-2 {
        clip-path: url(#clip-path);
      }

      .cls-3 {
        clip-path: url(#clip-path-2);
      }

      .cls-4 {
        clip-path: url(#clip-path-3);
      }

      .cls-5 {
        clip-path: url(#clip-path-4);
      }

      .cls-6 {
        clip-path: url(#clip-path-5);
      }

      .cls-7 {
        clip-path: url(#clip-path-6);
      }

      .cls-8 {
        fill: #0054a6;
      }
    </style>
    <clipPath id="clip-path" transform="translate(34.16 16.04)">
      <path class="cls-1" d="M136.23,65.29a35.85,35.85,0,0,0-3.9.31c-1.26.21-12.45,1.93-12.45,1.93s2.81,1.5,4.89,2.39,6.77,3.38,9.84,4.84,8.27,4.58,11.86,5.88a29.85,29.85,0,0,0,10.67,2.27c4.06,0,9.05-1.18,11.31-1.35s8.92-1,8.92-1a31.46,31.46,0,0,1-7.22-1.45,54.41,54.41,0,0,1-13-5.17c-7-3.65-13.06-6.72-15.43-7.48a21.51,21.51,0,0,0-5.36-1.16h-.12"/>
    </clipPath>
    <clipPath id="clip-path-2" transform="translate(34.16 16.04)">
      <path class="cls-1" d="M47.86,70.08s2.76,3.59,3.33,4.37,1.11,1.66,2,3A46.13,46.13,0,0,0,58.51,84c2,1.84,5.2,4.41,8.92,5a17.55,17.55,0,0,0,7.38,0c2.15-.38,4-.93,6-1.31s5.17-1.32,6.14-1.46l4.86-.73a63,63,0,0,1-7-.63,60.54,60.54,0,0,1-11.7-2.25,65.66,65.66,0,0,1-11.62-4.34,79.23,79.23,0,0,1-8.22-4.72,46,46,0,0,1-3.89-2.67c-.66-.52-2.18-2.08-2.18-2.08Z"/>
    </clipPath>
    <clipPath id="clip-path-3" transform="translate(34.16 16.04)">
      <path class="cls-1" d="M21.11,2.72a15.64,15.64,0,0,0-4.58,3.9,14.18,14.18,0,0,0-.82,1.24,14.84,14.84,0,0,0-.87,2.3,11.72,11.72,0,0,0-.26,5.14c.44,2.35,1,5.62,1.09,6.67S16,24.7,16,24.7s.24-3,.55-4.48.9-5.2,3.37-8.12,4.44-4.44,6.83-5.23a12.19,12.19,0,0,1,5.13-.73,8.51,8.51,0,0,1,3.4,1l1.08.66a38.08,38.08,0,0,0-3.55-4.22,10.09,10.09,0,0,0-1.92-1.27A9.48,9.48,0,0,0,27,1.33h-.37a12.37,12.37,0,0,0-5.47,1.4"/>
    </clipPath>
    <clipPath id="clip-path-4" transform="translate(34.16 16.04)">
      <path class="cls-1" d="M14.31,12.31a22.47,22.47,0,0,0,.52,6c.28,2,1.22,9.26,1.74,11.79a34,34,0,0,0,3.15,8c1,1.8,6.59,8.08,7.77,9.23s6.63,6.35,8,7.8,6.28,7.05,8.61,10.24,5.41,7.35,6.1,8.18,3.09,4,3.09,4-3.09-5.9-4.13-8.78S45.64,58.21,44,55.09A78.42,78.42,0,0,0,37.59,44.3a76.91,76.91,0,0,0-8.54-9.58,72.3,72.3,0,0,1-8.43-8.32,38.25,38.25,0,0,1-4.57-7.18,16.44,16.44,0,0,1-1.46-5.61,13.28,13.28,0,0,1,.21-2.89,21.49,21.49,0,0,1,1-3,11.65,11.65,0,0,0-1.46,4.54"/>
    </clipPath>
    <clipPath id="clip-path-5" transform="translate(34.16 16.04)">
      <path class="cls-1" d="M132.88,65.46c-2.37.22-5.51.5-7.73.76s-9,1-10.73,1.16a22.77,22.77,0,0,0-8.57,2.51,70.06,70.06,0,0,0-6.8,4.59c-1.34.94-5.09,3.75-6.63,4.91s-3.4,2.48-4.56,3.3-3.09,2.16-4.16,2.89-3,2.11-3,2.11l7.08-1.2c3.8-.65,8.4-1.27,13-2.47a39,39,0,0,0,10.77-4.47,103.22,103.22,0,0,0,11-7.91,54.64,54.64,0,0,1,7.23-4.82,14.15,14.15,0,0,1,4-1.26c1.17-.18,2.57-.27,2.57-.27h-.32c-.47,0-1.44,0-3.05.18"/>
    </clipPath>
    <clipPath id="clip-path-6" transform="translate(34.16 16.04)">
      <path class="cls-1" d="M34.28,5.6a9.16,9.16,0,0,1,.88,6.22C34.72,15.12,32.09,20,30.84,22s-6,9.66-7.86,12.34-7.13,10.53-9,13.13S4.59,61.23,3.68,62.37A34.46,34.46,0,0,0,.89,66.56c0,.21,1.43,4.32,2.32,7.21S4.9,80.22,4.9,80.22,15.44,65.29,18.11,61.57s8.52-12,10-14.26,6.29-9.08,7-10.36,3.79-7,4.65-10.4,1.77-7.37,1-11.19-1.9-5-2.6-5.88S35.55,6.35,34.9,5.62s-1.33-1.49-1.69-1.83a10,10,0,0,0-1.41-1,8.67,8.67,0,0,0-1-.48S33.5,3.93,34.28,5.6"/>
    </clipPath>
  </defs>
  <title>logo-aetc</title>
  <g>
    <path class="cls-1" d="M136.23,65.29a35.85,35.85,0,0,0-3.9.31c-1.26.21-12.45,1.93-12.45,1.93s2.81,1.5,4.89,2.39,6.77,3.38,9.84,4.84,8.27,4.58,11.86,5.88a29.85,29.85,0,0,0,10.67,2.27c4.06,0,9.05-1.18,11.31-1.35s8.92-1,8.92-1a31.46,31.46,0,0,1-7.22-1.45,54.41,54.41,0,0,1-13-5.17c-7-3.65-13.06-6.72-15.43-7.48a21.51,21.51,0,0,0-5.36-1.16h-.12" transform="translate(34.16 16.04)"/>
    <g class="cls-2">
      <rect class="cls-1" x="118.81" y="60.59" width="59.63" height="27.06" transform="translate(23.83 42.03) rotate(-9.66)"/>
    </g>
  </g>
  <g>
    <path class="cls-1" d="M47.86,70.08s2.76,3.59,3.33,4.37,1.11,1.66,2,3A46.13,46.13,0,0,0,58.51,84c2,1.84,5.2,4.41,8.92,5a17.55,17.55,0,0,0,7.38,0c2.15-.38,4-.93,6-1.31s5.17-1.32,6.14-1.46l4.86-.73a63,63,0,0,1-7-.63,60.54,60.54,0,0,1-11.7-2.25,65.66,65.66,0,0,1-11.62-4.34,79.23,79.23,0,0,1-8.22-4.72,46,46,0,0,1-3.89-2.67c-.66-.52-2.18-2.08-2.18-2.08Z" transform="translate(34.16 16.04)"/>
    <g class="cls-3">
      <rect class="cls-1" x="81.36" y="84.83" width="44.58" height="20.82"/>
    </g>
  </g>
  <g>
    <path class="cls-1" d="M21.11,2.72a15.64,15.64,0,0,0-4.58,3.9,14.18,14.18,0,0,0-.82,1.24,14.84,14.84,0,0,0-.87,2.3,11.72,11.72,0,0,0-.26,5.14c.44,2.35,1,5.62,1.09,6.67S16,24.7,16,24.7s.24-3,.55-4.48.9-5.2,3.37-8.12,4.44-4.44,6.83-5.23a12.19,12.19,0,0,1,5.13-.73,8.51,8.51,0,0,1,3.4,1l1.08.66a38.08,38.08,0,0,0-3.55-4.22,10.09,10.09,0,0,0-1.92-1.27A9.48,9.48,0,0,0,27,1.33h-.37a12.37,12.37,0,0,0-5.47,1.4" transform="translate(34.16 16.04)"/>
    <g class="cls-4">
      <rect class="cls-1" x="9.19" y="-3.09" width="32.09" height="32.21" transform="translate(31.82 35.8) rotate(-41.02)"/>
    </g>
  </g>
  <g>
    <path class="cls-1" d="M14.31,12.31a22.47,22.47,0,0,0,.52,6c.28,2,1.22,9.26,1.74,11.79a34,34,0,0,0,3.15,8c1,1.8,6.59,8.08,7.77,9.23s6.63,6.35,8,7.8,6.28,7.05,8.61,10.24,5.41,7.35,6.1,8.18,3.09,4,3.09,4-3.09-5.9-4.13-8.78S45.64,58.21,44,55.09A78.42,78.42,0,0,0,37.59,44.3a76.91,76.91,0,0,0-8.54-9.58,72.3,72.3,0,0,1-8.43-8.32,38.25,38.25,0,0,1-4.57-7.18,16.44,16.44,0,0,1-1.46-5.61,13.28,13.28,0,0,1,.21-2.89,21.49,21.49,0,0,1,1-3,11.65,11.65,0,0,0-1.46,4.54" transform="translate(34.16 16.04)"/>
    <g class="cls-5">
      <rect class="cls-1" x="48.26" y="23.81" width="39.17" height="69.73"/>
    </g>
  </g>
  <g>
    <path class="cls-1" d="M132.88,65.46c-2.37.22-5.51.5-7.73.76s-9,1-10.73,1.16a22.77,22.77,0,0,0-8.57,2.51,70.06,70.06,0,0,0-6.8,4.59c-1.34.94-5.09,3.75-6.63,4.91s-3.4,2.48-4.56,3.3-3.09,2.16-4.16,2.89-3,2.11-3,2.11l7.08-1.2c3.8-.65,8.4-1.27,13-2.47a39,39,0,0,0,10.77-4.47,103.22,103.22,0,0,0,11-7.91,54.64,54.64,0,0,1,7.23-4.82,14.15,14.15,0,0,1,4-1.26c1.17-.18,2.57-.27,2.57-.27h-.32c-.47,0-1.44,0-3.05.18" transform="translate(34.16 16.04)"/>
    <g class="cls-6">
      <rect class="cls-1" x="79.19" y="60.78" width="58.54" height="31.41" transform="translate(22.87 35.32) rotate(-9.66)"/>
    </g>
  </g>
  <g>
    <path class="cls-1" d="M34.28,5.6a9.16,9.16,0,0,1,.88,6.22C34.72,15.12,32.09,20,30.84,22s-6,9.66-7.86,12.34-7.13,10.53-9,13.13S4.59,61.23,3.68,62.37A34.46,34.46,0,0,0,.89,66.56c0,.21,1.43,4.32,2.32,7.21S4.9,80.22,4.9,80.22,15.44,65.29,18.11,61.57s8.52-12,10-14.26,6.29-9.08,7-10.36,3.79-7,4.65-10.4,1.77-7.37,1-11.19-1.9-5-2.6-5.88S35.55,6.35,34.9,5.62s-1.33-1.49-1.69-1.83a10,10,0,0,0-1.41-1,8.67,8.67,0,0,0-1-.48S33.5,3.93,34.28,5.6" transform="translate(34.16 16.04)"/>
    <g class="cls-7">
      <rect class="cls-1" x="-22.59" y="3.31" width="87.68" height="75.87" transform="translate(9.17 53.43) rotate(-57.97)"/>
    </g>
  </g>
  <g>
    <path class="cls-8" d="M57.73,30h-5.9L62.76,3h4.77L78.2,30H72.27l-2-5.28H59.67ZM64.91,9.45,61.09,20.38h7.75Z" transform="translate(34.16 16.04)"/>
    <path class="cls-8" d="M81,3H96.16V7.81H86.47v6.12H96V18.7h-9.5v6.52h9.69V30H81Z" transform="translate(34.16 16.04)"/>
    <path class="cls-8" d="M104.64,7.81H98.81V3h17V7.81h-5.79V30h-5.43Z" transform="translate(34.16 16.04)"/>
    <path class="cls-8" d="M143.9,21a13.54,13.54,0,0,1-13.19,9.54,14,14,0,1,1,0-28,13.73,13.73,0,0,1,13.22,9.69h-5.72a8.38,8.38,0,0,0-7.54-4.92c-5.24,0-8.63,4.41-8.63,9.18s3.53,9.25,8.67,9.25a8.49,8.49,0,0,0,7.5-4.77Z" transform="translate(34.16 16.04)"/>
  </g>
  <g>
    <path class="cls-1" d="M56.17,37c2.33,0,4,.43,5.28,1.57a6.58,6.58,0,0,1,2.06,5.07,6.52,6.52,0,0,1-2.06,5,7.63,7.63,0,0,1-5.28,1.57H54.34v8.3H51.45V37Zm-1.83,10.6h1.8c1.64,0,2.51-.17,3.32-.9a4,4,0,0,0,1.11-3.06,4.12,4.12,0,0,0-1.11-3.09c-.78-.7-1.68-.9-3.32-.9h-1.8Z" transform="translate(34.16 16.04)"/>
    <path class="cls-1" d="M66.11,42.48h2.36c0,1.26,0,2.1,0,3a4,4,0,0,1,4.22-3.33v3.06a1.82,1.82,0,0,0-1-.29c-1.36,0-2.94,1.52-2.94,4.81v8.85H66.11Z" transform="translate(34.16 16.04)"/>
    <path class="cls-1" d="M73.89,50.49c0-4.57,1.92-8.36,6.2-8.36s6.18,3.79,6.18,8.39-1.93,8.39-6.18,8.39-6.2-3.76-6.2-8.39Zm2.71.06c0,4.11,1.22,6,3.52,6s3.47-1.86,3.47-6-1.23-6-3.53-6-3.46,1.87-3.46,6Z" transform="translate(34.16 16.04)"/>
    <path class="cls-1" d="M99.81,58.3a6.64,6.64,0,0,1-1.39,4.6,5.59,5.59,0,0,1-4.34,1.69,5.26,5.26,0,0,1-5.45-4.86h2.65a2.6,2.6,0,0,0,2.85,2.44c1.69,0,3.12-.84,3.15-3.9,0-.58,0-1.4,0-2.21a3.64,3.64,0,0,1-3.73,2.85c-3.49,0-5.27-3.29-5.27-8.36s1.78-8.42,5.27-8.42c1.75,0,3.09.76,4,3,0-.85,0-1.64,0-2.63h2.24Zm-8.94-7.75c0,3.61,1.14,5.83,3.21,5.83A2.63,2.63,0,0,0,96.46,55c.62-.93.79-2.18.79-4.43s-.17-3.49-.79-4.42a2.67,2.67,0,0,0-2.38-1.43c-2.07,0-3.21,2.24-3.21,5.85Z" transform="translate(34.16 16.04)"/>
    <path class="cls-1" d="M103.49,42.48h2.36c0,1.26,0,2.1,0,3A4,4,0,0,1,110,42.13v3.06A1.82,1.82,0,0,0,109,44.9c-1.37,0-2.94,1.52-2.94,4.81v8.85h-2.56Z" transform="translate(34.16 16.04)"/>
    <path class="cls-1" d="M122.77,58.56h-2.36V56a4,4,0,0,1-3.87,2.91c-3.09,0-5.27-3.09-5.27-8.36,0-5.12,2-8.42,5.27-8.42a3.85,3.85,0,0,1,3.87,3V42.48h2.36Zm-8.94-8c0,3.61,1.13,5.83,3.2,5.83A2.64,2.64,0,0,0,119.42,55c.61-.93.79-2.18.79-4.43S120,47,119.42,46.1A2.68,2.68,0,0,0,117,44.67c-2.07,0-3.2,2.24-3.2,5.85Z" transform="translate(34.16 16.04)"/>
    <path class="cls-1" d="M126.56,42.48H129c0,.79,0,1.55,0,2.39a3.67,3.67,0,0,1,3.81-2.74,3.79,3.79,0,0,1,2.66,1,3.58,3.58,0,0,1,.81,1.63A4,4,0,0,1,137.48,43a4.92,4.92,0,0,1,2.86-.88,4.31,4.31,0,0,1,3.73,1.9,8,8,0,0,1,.87,4.08V58.56h-2.59V48.43A6.69,6.69,0,0,0,142,46a2.14,2.14,0,0,0-2.1-1.28,2.48,2.48,0,0,0-2.18,1,4.74,4.74,0,0,0-.73,2.8v10.1h-2.57V48.48A6.34,6.34,0,0,0,134.1,46,2.09,2.09,0,0,0,132,44.67a2.63,2.63,0,0,0-2.19,1,4.72,4.72,0,0,0-.73,2.88V58.56h-2.56Z" transform="translate(34.16 16.04)"/>
  </g>
  <g>
    <path class="cls-8" d="M152.15,14.43H150.9l2.57-9.16h1.18l2.63,9.16H156l-.68-2.4h-2.54Zm1.93-7.49-1,4H155Z" transform="translate(34.16 16.04)"/>
    <path class="cls-8" d="M158.09,5.27h1.22v9.16h-1.22Z" transform="translate(34.16 16.04)"/>
    <path class="cls-8" d="M160.94,5.27h2.27a3.3,3.3,0,0,1,2.95,1.34A5.7,5.7,0,0,1,167,9.85c0,3.18-1.56,4.58-3.74,4.58h-2.31Zm1.23,8h1c2,0,2.54-1.53,2.54-3.45a4.6,4.6,0,0,0-.57-2.57,2.19,2.19,0,0,0-2-.88h-1Z" transform="translate(34.16 16.04)"/>
    <path class="cls-8" d="M169.1,11.79c.08,1.28.76,1.72,1.49,1.72A1.45,1.45,0,0,0,172.12,12c0-1.19-1.09-1.46-2-1.79A2.51,2.51,0,0,1,168,7.75a2.57,2.57,0,0,1,5.14-.24H172a1.34,1.34,0,0,0-1.36-1.38,1.3,1.3,0,0,0-1.33,1.42c0,1.1.93,1.35,2.05,1.73a2.62,2.62,0,0,1,2,2.63,2.62,2.62,0,0,1-2.78,2.69,2.54,2.54,0,0,1-2.71-2.81Z" transform="translate(34.16 16.04)"/>
    <path class="cls-8" d="M177.8,5.27h4.34V6.4H179V9.15h3.11v1.12H179v3h3.11v1.13H177.8Z" transform="translate(34.16 16.04)"/>
    <path class="cls-8" d="M188.2,14.43h-1V13.27a1.67,1.67,0,0,1-1.65,1.31c-1.31,0-2.24-1.31-2.24-3.55s.83-3.58,2.24-3.58a1.57,1.57,0,0,1,1.57,1.2c0-.33,0-.64,0-1.05V5.27h1.09ZM184.4,11c0,1.52.48,2.47,1.36,2.47a1.13,1.13,0,0,0,1-.6,3.42,3.42,0,0,0,.34-1.89,3.36,3.36,0,0,0-.34-1.88,1.11,1.11,0,0,0-1-.6c-.88,0-1.36.94-1.36,2.48Z" transform="translate(34.16 16.04)"/>
    <path class="cls-8" d="M194.36,14.43h-1c0-.35,0-.67,0-1a1.67,1.67,0,0,1-1.73,1.19c-1.15,0-1.9-.64-1.9-2.2V7.6h1.1V12c0,.62.1,1.48,1.09,1.48.8,0,1.34-.53,1.34-1.68V7.6h1.09Z" transform="translate(34.16 16.04)"/>
    <path class="cls-8" d="M200.41,12c-.1,1.4-.83,2.56-2.24,2.56-1.76,0-2.64-1.56-2.64-3.55,0-2.25,1-3.58,2.61-3.58s2.2,1.15,2.24,2.59h-1.11c-.1-1.18-.61-1.56-1.18-1.56a1.09,1.09,0,0,0-1,.63,3.93,3.93,0,0,0-.37,1.9c0,1.72.52,2.55,1.41,2.55.73,0,1.1-.63,1.19-1.54Z" transform="translate(34.16 16.04)"/>
    <path class="cls-8" d="M206,14.43h-1V13.34a1.66,1.66,0,0,1-1.64,1.24c-1.32,0-2.24-1.31-2.24-3.55s.83-3.58,2.24-3.58A1.63,1.63,0,0,1,205,8.73V7.6h1ZM202.17,11c0,1.53.48,2.47,1.36,2.47a1.11,1.11,0,0,0,1-.6,3.4,3.4,0,0,0,.34-1.89,3.38,3.38,0,0,0-.34-1.88,1.13,1.13,0,0,0-1-.6c-.88,0-1.36,1-1.36,2.48Z" transform="translate(34.16 16.04)"/>
    <path class="cls-8" d="M207.75,8.63h-.87v-1h.87V5.72h1.1V7.6h.87v1h-.87v5.8h-1.1Z" transform="translate(34.16 16.04)"/>
    <path class="cls-8" d="M210.81,5.27h1.09V6.54h-1.09Zm0,2.33h1.09v6.83h-1.09Z" transform="translate(34.16 16.04)"/>
    <path class="cls-8" d="M213.25,11c0-1.94.81-3.55,2.63-3.55s2.63,1.61,2.63,3.56-.82,3.57-2.63,3.57S213.25,13,213.25,11Zm1.15,0c0,1.74.52,2.53,1.5,2.53s1.47-.79,1.47-2.55-.52-2.53-1.5-2.53-1.47.79-1.47,2.53Z" transform="translate(34.16 16.04)"/>
    <path class="cls-8" d="M219.72,7.6h1c0,.33,0,.64,0,1a1.76,1.76,0,0,1,1.77-1.15c1.13,0,1.89.66,1.89,2.22v4.76h-1.09V10c0-.64-.1-1.5-1.1-1.5-.81,0-1.34.54-1.34,1.69v4.21h-1.09Z" transform="translate(34.16 16.04)"/>
    <path class="cls-8" d="M235.73,9l-1.47,2.88,1.57,1.88-.84.74-1.32-1.61a3.08,3.08,0,0,1-2.41,1.72A2.55,2.55,0,0,1,228.7,12a3.06,3.06,0,0,1,1.87-2.84,2.84,2.84,0,0,1-.93-1.89,2.06,2.06,0,0,1,2.07-2.13,2,2,0,0,1,2,2,2.65,2.65,0,0,1-1.51,2.24L233.53,11l1-2Zm-4.41,1A2.07,2.07,0,0,0,230,11.84a1.47,1.47,0,0,0,1.41,1.58c.84,0,1.3-.88,1.57-1.42Zm.36-3.91a1,1,0,0,0-.94,1,2.22,2.22,0,0,0,.82,1.46c.68-.4,1-.85,1-1.42a1,1,0,0,0-.91-1Z" transform="translate(34.16 16.04)"/>
    <path class="cls-8" d="M152.91,21.26h-1.75V20.13h4.74v1.13h-1.76v8h-1.23Z" transform="translate(34.16 16.04)"/>
    <path class="cls-8" d="M156.36,22.46h1c0,.53,0,.89,0,1.26a1.68,1.68,0,0,1,1.79-1.41v1.3a.77.77,0,0,0-.44-.13c-.59,0-1.25.65-1.25,2.05v3.76h-1.09Z" transform="translate(34.16 16.04)"/>
    <path class="cls-8" d="M164.49,29.29h-1V28.2a1.69,1.69,0,0,1-1.65,1.24c-1.31,0-2.24-1.31-2.24-3.56s.83-3.57,2.24-3.57a1.64,1.64,0,0,1,1.65,1.27V22.46h1Zm-3.8-3.41c0,1.54.48,2.48,1.36,2.48a1.1,1.1,0,0,0,1-.61,3.34,3.34,0,0,0,.34-1.88,3.38,3.38,0,0,0-.34-1.88,1.13,1.13,0,0,0-1-.6c-.88,0-1.36.95-1.36,2.48Z" transform="translate(34.16 16.04)"/>
    <path class="cls-8" d="M166.17,20.13h1.09v1.26h-1.09Zm0,2.33h1.09v6.83h-1.09Z" transform="translate(34.16 16.04)"/>
    <path class="cls-8" d="M169,22.46h1c0,.33,0,.64,0,1a1.77,1.77,0,0,1,1.77-1.15c1.14,0,1.9.65,1.9,2.21v4.77h-1.09V24.88c0-.63-.1-1.49-1.11-1.49-.8,0-1.33.54-1.33,1.69v4.21H169Z" transform="translate(34.16 16.04)"/>
    <path class="cls-8" d="M175.25,20.13h1.09v1.26h-1.09Zm0,2.33h1.09v6.83h-1.09Z" transform="translate(34.16 16.04)"/>
    <path class="cls-8" d="M178,22.46h1c0,.33,0,.64,0,1a1.76,1.76,0,0,1,1.77-1.15c1.14,0,1.89.65,1.89,2.21v4.77h-1.09V24.88c0-.63-.1-1.49-1.1-1.49-.8,0-1.33.54-1.33,1.69v4.21H178Z" transform="translate(34.16 16.04)"/>
    <path class="cls-8" d="M188.74,29.18a2.82,2.82,0,0,1-.59,1.95,2.38,2.38,0,0,1-1.85.72A2.24,2.24,0,0,1,184,29.78h1.13a1.1,1.1,0,0,0,1.21,1c.72,0,1.32-.36,1.34-1.66,0-.24,0-.59,0-.94a1.56,1.56,0,0,1-1.59,1.22c-1.48,0-2.23-1.4-2.23-3.56s.75-3.57,2.23-3.57a1.72,1.72,0,0,1,1.71,1.26c0-.36,0-.69,0-1.11h1Zm-3.8-3.3c0,1.54.49,2.48,1.36,2.48a1.1,1.1,0,0,0,1-.61,3.36,3.36,0,0,0,.33-1.88,3.4,3.4,0,0,0-.33-1.88,1.13,1.13,0,0,0-1-.6c-.87,0-1.36.95-1.36,2.48Z" transform="translate(34.16 16.04)"/>
    <path class="cls-8" d="M199.33,26.13a3,3,0,0,1-3,3.33c-2,0-3.22-1.62-3.22-4.75S194.25,20,196.32,20s3,1.63,3,3.49h-1.24c0-1.33-.49-2.33-1.68-2.33-1.38,0-2.06,1.3-2.06,3.65s.88,3.53,2.06,3.53,1.63-1.12,1.68-2.17Z" transform="translate(34.16 16.04)"/>
    <path class="cls-8" d="M201.24,26.23c0,1.18.46,2.19,1.47,2.19a1.32,1.32,0,0,0,1.3-1.19h1.08a2.76,2.76,0,0,1-.89,1.71,2.37,2.37,0,0,1-1.49.5c-1.86,0-2.62-1.74-2.62-3.56,0-2.07.94-3.57,2.6-3.57a2.11,2.11,0,0,1,1.88,1,5.27,5.27,0,0,1,.58,2.92Zm2.82-.94c0-1.09-.43-2.07-1.39-2.07s-1.41.83-1.43,2.07Z" transform="translate(34.16 16.04)"/>
    <path class="cls-8" d="M206.4,22.46h1c0,.33,0,.64,0,1a1.78,1.78,0,0,1,1.77-1.15c1.14,0,1.9.65,1.9,2.21v4.77h-1.09V24.88c0-.63-.1-1.49-1.1-1.49-.81,0-1.34.54-1.34,1.69v4.21H206.4Z" transform="translate(34.16 16.04)"/>
    <path class="cls-8" d="M212.8,23.48h-.86v-1h.86V20.58h1.1v1.88h.87v1h-.87v5.81h-1.1Z" transform="translate(34.16 16.04)"/>
    <path class="cls-8" d="M216.5,26.23c0,1.18.46,2.19,1.48,2.19a1.32,1.32,0,0,0,1.3-1.19h1.07a2.71,2.71,0,0,1-.89,1.71,2.32,2.32,0,0,1-1.48.5c-1.86,0-2.63-1.74-2.63-3.56,0-2.07.94-3.57,2.6-3.57a2.11,2.11,0,0,1,1.88,1,5.18,5.18,0,0,1,.58,2.92Zm2.82-.94c0-1.09-.43-2.07-1.38-2.07s-1.41.83-1.44,2.07Z" transform="translate(34.16 16.04)"/>
    <path class="cls-8" d="M221.67,22.46h1c0,.53,0,.89,0,1.26a1.69,1.69,0,0,1,1.79-1.41v1.3a.77.77,0,0,0-.44-.13c-.59,0-1.25.65-1.25,2.05v3.76h-1.09Z" transform="translate(34.16 16.04)"/>
  </g>
</svg>
